<svg width="97" height="81" viewBox="0 0 97 81" fill="none" xmlns="http://www.w3.org/2000/svg">
<path d="M34.0564 58.3462C35.0069 59.5238 36.21 60.4726 37.5768 61.1223C38.9436 61.7719 40.439 62.1059 41.9523 62.0993C43.4167 62.1154 44.8678 61.8218 46.2107 61.2376C47.5536 60.6535 48.7577 59.792 49.7443 58.7098V58.7098L94.1977 11.0747C95.331 10.0255 96.0422 8.59849 96.1976 7.06185C96.1678 5.69349 95.611 4.38945 94.6432 3.42164C93.6754 2.45383 92.3713 1.89698 91.003 1.86719C89.068 1.86719 87.8212 3.16585 86.5485 4.55543L42.3289 51.9308L42.1341 52.1645L41.8744 51.8788L26.693 34.9962C26.193 34.3436 25.5532 33.8112 24.8206 33.4382C24.088 33.0651 23.2812 32.8609 22.4593 32.8404C22.0511 32.8437 21.6451 32.9004 21.2516 33.0092C20.1087 33.2387 19.0796 33.8545 18.337 34.7531C17.5945 35.6517 17.1837 36.7785 17.1738 37.9441C17.1738 39.7103 18.3166 40.9441 19.4594 42.1778L34.0564 58.3462L34.1603 58.2553Z" fill="url(#paint0_linear)"/>
<path d="M79.5097 32.5806L74.1462 38.3337C74.1462 38.9701 74.2371 39.7103 74.2242 40.5414C74.0683 53.5281 62.0946 74.1379 40.6277 74.1379C31.7265 74.1004 23.2002 70.5496 16.9036 64.2578C10.6071 57.9661 7.04961 49.4426 7.00518 40.5414C7.00518 20.9316 24.2255 7.24364 40.5887 6.94495C55.4065 6.65924 65.2634 17.4382 67.0166 19.3472L71.0424 15.0356C66.0821 9.24447 59.6064 4.94981 52.3416 2.63337C48.5332 1.56585 44.6075 0.972629 40.6536 0.867188C30.1314 0.867188 20.0401 5.04715 12.5997 12.4875C5.15933 19.9279 0.97937 30.0192 0.97937 40.5414C0.97937 51.0637 5.15933 61.155 12.5997 68.5954C20.0401 76.0358 30.1314 80.2157 40.6536 80.2157C65.614 80.2157 79.7435 56.6189 80.3279 40.5414C80.4035 37.8635 80.1285 35.1872 79.5097 32.5806V32.5806Z" fill="url(#paint1_linear)"/>
<defs>
<linearGradient id="paint0_linear" x1="56.6857" y1="1.86719" x2="56.6857" y2="62.1" gradientUnits="userSpaceOnUse">
<stop stop-color="#EFD370"/>
<stop offset="0.286458" stop-color="#F1E295"/>
<stop offset="0.619792" stop-color="#C0AD61"/>
<stop offset="1" stop-color="#D9AF19"/>
</linearGradient>
<linearGradient id="paint1_linear" x1="40.6598" y1="0.867187" x2="40.6598" y2="80.2157" gradientUnits="userSpaceOnUse">
<stop stop-color="#EFD370"/>
<stop offset="0.286458" stop-color="#F1E295"/>
<stop offset="0.619792" stop-color="#C0AD61"/>
<stop offset="1" stop-color="#D9AF19"/>
</linearGradient>
</defs>
</svg>
